<svg xmlns="http://www.w3.org/2000/svg" width="24" height="24" viewBox="0 0 24 24" fill="currentColor">
  <path fill-rule="evenodd" clip-rule="evenodd" d="M19.43 12.98c.04-.32.07-.64.07-.98s-.03-.66-.07-.98l2.11-1.65c.19-.15.24-.42.12-.64l-2-3.46c-.12-.22-.39-.3-.61-.22l-2.49 1c-.52-.39-1.08-.72-1.69-.98l-.38-2.65A.495.495 0 0 0 14.01 2H9.99c-.25 0-.46.18-.49.42l-.38 2.65c-.61.26-1.17.59-1.69.98l-2.49-1c-.23-.09-.49 0-.61.22l-2 3.46c-.12.22-.07.49.12.64l2.11 1.65c-.04.32-.07.64-.07.98s.03.66.07.98l-2.11 1.65c-.19.15-.24.42-.12.64l2 3.46c.12.22.39.3.61.22l2.49-1c.52.39 1.08.72 1.69.98l.38 2.65c.03.24.24.42.49.42h4.02c.25 0 .46-.18.49-.42l.38-2.65c.61-.26 1.17-.59 1.69-.98l2.49 1c.23.09.49 0 .61-.22l2-3.46c.12-.22.07-.49-.12-.64l-2.11-1.65ZM12 15.5A3.5 3.5 0 1 0 12 8.5a3.5 3.5 0 0 0 0 7Z"/>
</svg>
