<?xml version="1.0" encoding="UTF-8" standalone="no"?>
<!-- Created with Inkscape (http://www.inkscape.org/) -->

<svg
   version="1.1"
   id="svg1"
   width="400"
   height="241.33333"
   viewBox="0 0 400 241.33333"
   xmlns="http://www.w3.org/2000/svg"
   xmlns:svg="http://www.w3.org/2000/svg">
  <defs
     id="defs1" />
  <g
     id="g1">
    <path
       style="fill:currentColor;fill-opacity:1"
       d="m 52.726471,238.94642 c -28.28105,3.70453 -53.71080727,-24.28911 -50.7299538,-51.99554 1.171067,-26.69717 27.6924628,-48.6321 54.1308118,-44.55503 21.55351,1.5362 40.264592,19.72715 42.720622,41.20466 3.694539,18.76312 -6.52476,40.71379 -24.043538,49.41538 -6.777295,3.93162 -14.092822,6.94472 -22.077942,5.93053 z m 298.522349,0.37121 c -21.05668,1.05049 -38.76171,-14.74858 -46.89461,-33.1078 -9.08038,-15.7517 -19.04074,-30.9849 -27.77206,-46.95601 -8.96901,14.56652 -14.70665,31.71958 -25.37261,45.68733 -6.75943,13.36588 -18.50897,22.8687 -32.38924,28.06328 -18.78336,5.0516 -42.33535,2.05157 -54.69301,-14.99323 C 151.6472,201.17057 142.60086,182.01717 131.03071,164.51564 111.30842,131.31389 89.776572,99.118036 71.292173,65.226812 66.733939,46.0884 69.927339,23.218629 87.176643,10.955388 105.57455,-4.5613284 135.19863,-3.0707473 151.95717,14.229575 c 12.26767,13.058122 19.11818,30.155662 29.16992,44.89071 18.37843,30.287977 36.79921,60.550245 55.23568,90.802925 5.60237,-13.7889 18.58163,-32.60185 7.31079,-46.41169 -11.47429,-19.401142 -27.46223,-38.743191 -23.06553,-62.739389 0.74929,-13.295361 10.24002,-26.176919 21.4801,-33.007761 20.6178,-13.5403901 51.13424,-8.44235445 65.1362,12.122753 12.50769,17.834097 21.92082,37.66885 33.55733,56.107041 18.82529,32.610416 38.74165,64.726366 56.91932,97.625486 9.3177,24.49447 -3.95157,55.17831 -29.43906,63.09777 -5.41129,2.00559 -11.23521,3.08974 -17.0131,2.60021 z"
       id="path1" />
  </g>
</svg>
